<?xml version="1.0" encoding="UTF-8"?>
<svg width="141px" height="21px" viewBox="0 0 141 21" version="1.1" xmlns="http://www.w3.org/2000/svg" xmlns:xlink="http://www.w3.org/1999/xlink">
    <title>中国电子云logo-01</title>
    <defs>
        <linearGradient x1="-9.26154218%" y1="9.70787813%" x2="106.869286%" y2="81.455772%" id="linearGradient-1">
            <stop stop-color="#A4D2FF" offset="0%"></stop>
            <stop stop-color="#B1D3FF" offset="21%"></stop>
            <stop stop-color="#2263FF" offset="70%"></stop>
            <stop stop-color="#2244D5" offset="100%"></stop>
        </linearGradient>
        <linearGradient x1="-1.44510786%" y1="2.8448781%" x2="105.755117%" y2="92.7403467%" id="linearGradient-2">
            <stop stop-color="#FFFFFF" offset="1%"></stop>
            <stop stop-color="#327BFF" offset="59%"></stop>
            <stop stop-color="#0055FF" offset="100%"></stop>
        </linearGradient>
        <linearGradient x1="-176.276596%" y1="-0.928046844%" x2="108.191489%" y2="62.8079695%" id="linearGradient-3">
            <stop stop-color="#A4D2FF" offset="0%"></stop>
            <stop stop-color="#2263FF" offset="63%"></stop>
            <stop stop-color="#0A3ABD" offset="100%"></stop>
        </linearGradient>
        <linearGradient x1="-209.052183%" y1="84.1733875%" x2="75.6123536%" y2="20.8810439%" id="linearGradient-4">
            <stop stop-color="#A4D2FF" offset="0%"></stop>
            <stop stop-color="#2263FF" offset="63%"></stop>
            <stop stop-color="#0A3ABD" offset="100%"></stop>
        </linearGradient>
    </defs>
    <g id="控件" stroke="none" stroke-width="1" fill="none" fill-rule="evenodd">
        <g id="头部栏" transform="translate(-16.000000, -14.000000)" fill-rule="nonzero">
            <g id="中国电子云logo-01" transform="translate(16.000000, 14.000000)">
                <path d="M14.6,14.69 L14.6,14.57 C12.1494521,16.5317389 8.58380248,16.1922711 6.54745861,13.8033574 C4.51111475,11.4144438 4.74051154,7.84002462 7.06552051,5.73101111 C9.39052948,3.62199759 12.9703212,3.74110535 15.15,6 L18.33,3.29 C15.5978355,0.302557214 11.3339958,-0.742834083 7.5298393,0.642059456 C3.72568276,2.026953 1.13183968,5.56886631 0.959723131,9.61360524 C0.787606581,13.6583442 3.07117834,17.4078071 6.7439326,19.110867 C10.4166869,20.813927 14.7539214,20.1345388 17.73,17.39 C17.9366667,17.1966667 18.1366667,16.9966667 18.33,16.79 L14.6,14.69 Z" id="路径" fill="url(#linearGradient-1)"></path>
                <path d="M25.88,12.6 C24.6780426,15.0135533 21.9735356,16.2830229 19.3488867,15.6656418 C16.7242378,15.0482607 14.8692308,12.7062829 14.8692308,10.01 C14.8692308,7.31371714 16.7242378,4.97173926 19.3488867,4.35435818 C21.9735356,3.73697709 24.6780426,5.00644668 25.88,7.42 L26.81,6.49 L28.32,5 C28.6753173,4.64294858 28.7095961,4.0773492 28.4,3.68 C25.733656,0.428983701 21.3185004,-0.806923783 17.351828,0.587352796 C13.3851556,1.98162938 10.714317,5.7082481 10.6685111,9.91257911 C10.6227051,14.1169101 13.2117168,17.9008346 17.1470701,19.3812033 C21.0824234,20.861572 25.523458,19.7221522 28.26,16.53 C28.6554277,16.0609368 28.6294474,15.3681303 28.2,14.93 L25.88,12.6 Z" id="路径" fill="url(#linearGradient-2)"></path>
                <path d="M25.88,7.42 C25.0354733,5.72701265 23.4195125,4.55125408 21.5487986,4.26865688 C19.6780848,3.98605968 17.7869282,4.63201966 16.48,6 L16.48,6 C16.48,6 23.2,9.61 25.88,7.42 Z" id="路径" fill="url(#linearGradient-3)"></path>
                <path d="M16.48,14 C17.7870648,15.3636512 19.6754624,16.0067791 21.5431325,15.7243412 C23.4108027,15.4419034 25.0245953,14.2691578 25.87,12.58 C23.2,10.46 16.53,14 16.48,14 Z" id="路径" fill="url(#linearGradient-4)"></path>
                <polygon id="路径" fill="#fff" points="61.26 8.88 63.9 8.88 63.9 6.74 59.67 6.74 61.24 5.15 70.69 5.15 69.12 6.74 66.5 6.74 66.5 8.88 70.67 8.88 69.1 10.48 66.5 10.48 66.5 13.14 68.07 13.14 68.07 11.8 70.69 11.8 70.69 13.14 69.1 14.75 59.67 14.75 61.26 13.14 63.9 13.14 63.9 10.48 59.67 10.48"></polygon>
                <path d="M114.69,4.08 L99.5,4.08 L101.38,2.16 L114.67,2.16 C116.128032,2.16 117.31,3.34196826 117.31,4.8 L117.31,5.36 C117.299112,6.81349786 116.123498,7.98911192 114.67,8 L114.69,4.08 Z" id="路径" fill="#fff"></path>
                <path d="M100.28,9.75 L108.49,9.75 L108.49,8 L110.41,6.12 L114.17,6.12 L112.29,8 L111.29,8 L111.29,9.73 L117.75,9.73 L115.91,11.59 L111.27,11.59 L111.27,15.24 C111.281526,16.6861494 110.135543,17.8765513 108.69,17.92 L100.53,17.92 L102.61,15.82 L108.49,15.82 L108.49,11.59 L98.49,11.59 L100.28,9.75 Z" id="路径" fill="#fff"></path>
                <path d="M74.3600764,4.78 L74.3600764,15.06 C74.3653245,15.7601775 74.092276,16.4337906 73.6009264,16.9326418 C73.1095768,17.4314929 72.4401778,17.7147157 71.74,17.72 L71.74,17.72 L71.74,4.1 L58.64,4.1 L58.64,15.82 L71.23,15.82 L69.37,17.72 L58.64,17.72 C57.9363494,17.72 57.2618063,17.4391344 56.7661313,16.9397043 C56.2704563,16.4402742 55.9946693,15.7636304 55.9999241,15.06 L55.9999241,15.06 L55.9999241,4.8 C55.9999241,3.33869774 57.178739,2.15098723 58.64,2.14 L71.74,2.14 C73.186986,2.14 74.3600764,3.31301396 74.3600764,4.76 L74.3600764,4.76" id="路径" fill="#fff"></path>
                <path d="M53.42,13.72 C53.3598154,15.1336509 52.2331482,16.2689848 50.82,16.34 L50.82,5.15 L45.41,5.15 L45.41,14.21 L50.28,14.21 L48.17,16.34 L45.41,16.34 L45.41,18.45 L42.6,18.45 L42.6,16.34 L37.13,16.34 C35.6955039,16.2965568 34.5584699,15.1151075 34.5699131,13.68 L34.5699131,5.68 C34.5587005,4.22627106 35.716596,3.03274796 37.17,3 L42.6,3 L42.6,1.54 L45.41,1.54 L45.41,3 L50.82,3 C52.2546362,3.02169946 53.4092944,4.18523962 53.42,5.62 L53.42,13.72 Z M42.59,14.21 L42.59,5.15 L37.18,5.15 L37.18,14.23 L42.59,14.21 Z" id="形状" fill="#fff"></path>
                <path d="M85,9.4 L79.61,9.4 L81.41,7.58 L85,7.58 L85,4.68 L79.61,4.68 L79.61,12.34 L85,12.34 L85,9.4 Z M79.61,14.21 C78.1726827,14.1725984 77.0209732,13.0076509 77,11.57 L77,5.46 C77.0102949,4.01456256 78.1650181,2.83771826 79.61,2.8 L85,2.8 L85,2 L87.81,2 L87.81,2.8 L93.2,2.8 C94.6424525,2.8108869 95.8091131,3.97754752 95.82,5.42 L95.82,11.55 C95.8253245,12.2501775 95.552276,12.9237906 95.0609264,13.4226418 C94.5695768,13.9214929 93.9001778,14.2047157 93.2,14.21 L93.2,14.21 L93.2,7.57 L91.45,9.42 L87.82,9.42 L87.82,12.35 L92.69,12.35 L90.85,14.23 L87.85,14.23 L87.85,15.82 L95.85,15.82 L93.77,17.93 L87.63,17.93 C86.9298269,17.9273529 86.2593832,17.6466689 85.7661615,17.1496964 C85.2729397,16.6527239 84.9973428,15.9801731 85,15.28 L85,15.28 L85,14.28 L79.61,14.21 Z M87.82,4.66 L87.82,7.56 L93.21,7.56 L93.21,4.66 L87.82,4.66 Z" id="形状" fill="#fff"></path>
                <polygon id="路径" fill="#fff" points="124.55 2.16 122.67 4.04 136.79 4.04 138.67 2.14"></polygon>
                <polygon id="路径" fill="#fff" points="139.2 17.88 136.23 17.9 134.34 12.85 137.31 12.85"></polygon>
                <path d="M139.12,10.12 L141,8.22 L122.22,8.22 L120.34,10.12 L125,10.12 L122.81,16.06 L122.81,16.06 C122.593047,16.4590873 122.593047,16.9409127 122.81,17.34 C123.034307,17.6790597 123.404314,17.8936636 123.81,17.92 L133.53,17.92 L135.41,16.02 L125.75,16.02 L127.92,10.12 L139.12,10.12 Z" id="路径" fill="#fff"></path>
            </g>
        </g>
    </g>
</svg>